PathFileType	4	(X/Y/Z)	/Users/itak/Documents/Research/Walk-IL/dataset/trc/00257_00009.trc
DataRate	CameraRate	NumFrames	NumMarkers	Units	OrigDataRate	OrigDataStartFrame	OrigNumFrames
100.000000	100.000000	4	53	mm	100.000000	0	533
Frame#	Time	RPSI			LPSI			L3			STRN			T10			C7			CLAV			RBAK			LBAK			LSHO			LUPA			LAEL			LAOL			LWTS			LWPS			LFRA			LIFD			LHPS			LHTS			RSHO			RUPA			RAEL			RAOL			RWPS			RFRA			RIFD			RHTS			RHPS			RBHD			LFHD			RFHD			LBHD			LHIP			RHIP			RASI			LASI			LKNE			LTHI			LANK			LTIP			LTOE			LMT1			LMT5			LHEE			RKNE			RTHI			RANK			RTIP			RTOE			RMT5			RHEE			RWTS			RMT1			
		X1	Y1	Z1	X2	Y2	Z2	X3	Y3	Z3	X4	Y4	Z4	X5	Y5	Z5	X6	Y6	Z6	X7	Y7	Z7	X8	Y8	Z8	X9	Y9	Z9	X10	Y10	Z10	X11	Y11	Z11	X12	Y12	Z12	X13	Y13	Z13	X14	Y14	Z14	X15	Y15	Z15	X16	Y16	Z16	X17	Y17	Z17	X18	Y18	Z18	X19	Y19	Z19	X20	Y20	Z20	X21	Y21	Z21	X22	Y22	Z22	X23	Y23	Z23	X24	Y24	Z24	X25	Y25	Z25	X26	Y26	Z26	X27	Y27	Z27	X28	Y28	Z28	X29	Y29	Z29	X30	Y30	Z30	X31	Y31	Z31	X32	Y32	Z32	X33	Y33	Z33	X34	Y34	Z34	X35	Y35	Z35	X36	Y36	Z36	X37	Y37	Z37	X38	Y38	Z38	X39	Y39	Z39	X40	Y40	Z40	X41	Y41	Z41	X42	Y42	Z42	X43	Y43	Z43	X44	Y44	Z44	X45	Y45	Z45	X46	Y46	Z46	X47	Y47	Z47	X48	Y48	Z48	X49	Y49	Z49	X50	Y50	Z50	X51	Y51	Z51	X52	Y52	Z52	X53	Y53	Z53	

1	0	-1438.278686523438	1053.06884765625	458.5643615722656	-1421.818603515625	1057.828857421875	340.0440063476562	-1437.447998046875	1127.64453125	379.64306640625	-1201.942016601562	1322.433349609375	406.4815063476562	-1445.309814453125	1253.97412109375	382.9992370605469	-1397.84912109375	1517.314453125	382.8235168457031	-1231.408935546875	1438.347412109375	404.2530517578125	-1476.340454101562	1374.705810546875	444.7342834472656	-1406.669311523438	1478.957641601562	272.9400024414062	-1312.882080078125	1482.516845703125	225.937255859375	-1333.840698242188	1363.322387695312	146.8191986083984	-1316.05322265625	1152.64453125	124.4168090820312	-1390.302612304688	1136.17236328125	166.7622833251953	-1226.81201171875	919.6195068359375	191.1444244384766	-1246.395263671875	902.4740600585938	110.6177215576172	-1291.689331054688	1045.732788085938	113.3370132446289	-1215.271606445312	727.1411743164062	185.2615203857422	-1226.996826171875	814.3767700195312	117.3688278198242	-1188.149658203125	821.5010375976562	172.4614715576172	-1362.098876953125	1479.811401367188	556.813720703125	-1388.377075195312	1415.18115234375	620.9930419921875	-1404.7705078125	1133.697265625	661.2352905273438	-1427.717651367188	1128.344970703125	569.0523071289062	-1316.098510742188	905.2963256835938	687.2515869140625	-1377.510375976562	1065.498291015625	675.2958374023438	-1238.864624023438	728.6788330078125	619.3895263671875	-1218.137573242188	801.6570434570312	642.9472045898438	-1272.9521484375	799.1367797851562	689.8644409179688	-1373.470825195312	1672.5029296875	432.1241455078125	-1164.75341796875	1732.293823242188	366.55224609375	-1178.880493164062	1731.463012695312	464.7242126464844	-1311.073486328125	1683.580810546875	307.3653869628906	-1306.684692382812	991.9202880859375	212.5032653808594	-1355.468994140625	1010.586181640625	575.8892211914062	-1254.102416992188	1052.971923828125	551.2075805664062	-1211.346069335938	1033.554443359375	272.1663208007812	-1299.709350585938	507.6957092285156	263.9204406738281	-1290.614013671875	651.0205688476562	230.8690490722656	-1394.830078125	40.53866577148438	275.3273010253906	-1356.2333984375	286.9572143554688	257.9218444824219	-1182.5986328125	47.48725128173828	340.3410339355469	-1252.776123046875	39.03371047973633	381.5382995605469	-1264.998413085938	42.24273300170898	265.6355285644531	-1459.52490234375	43.3559684753418	325.7028503417969	-1341.639526367188	518.0224609375	543.0477294921875	-1305.477661132812	784.6292724609375	590.4544677734375	-1423.57421875	40.39713668823242	513.3006591796875	-1341.087646484375	402.4135131835938	528.4403076171875	-1209.685913085938	46.87129974365234	499.1045227050781	-1318.628784179688	41.03717041015625	553.9998779296875	-1478.796020507812	36.96254730224609	448.4461669921875	nan	nan	nan	nan	nan	nan	
2	0.01	-1438.254638671875	1053.06494140625	458.5808715820312	-1421.804077148438	1057.812133789062	340.0681762695312	-1437.440795898438	1127.643188476562	379.6589660644531	-1201.916625976562	1322.41259765625	406.4946594238281	-1445.304077148438	1253.982666015625	383.0242309570312	-1397.835205078125	1517.322265625	382.8558959960938	-1231.38525390625	1438.3486328125	404.2796630859375	-1476.30126953125	1374.693969726562	444.7921447753906	-1406.626586914062	1478.968994140625	272.9756164550781	-1312.8544921875	1482.5205078125	225.9677124023438	-1333.835083007812	1363.35302734375	146.837158203125	-1316.104736328125	1152.69970703125	124.3130416870117	-1390.329345703125	1136.209838867188	166.7263488769531	-1226.969116210938	919.5526123046875	190.8156890869141	-1246.640625	902.5001831054688	110.2437362670898	-1291.792846679688	1045.76025390625	113.2231216430664	-1215.801879882812	727.0065307617188	184.7416839599609	-1227.355590820312	814.4180908203125	116.9309310913086	-1188.365112304688	821.3245239257812	171.9871826171875	-1362.046142578125	1479.8037109375	556.85693359375	-1388.334838867188	1415.181640625	621.0418090820312	-1404.754638671875	1133.690185546875	661.2576904296875	-1427.691650390625	1128.345825195312	569.0547485351562	-1316.095336914062	905.224853515625	687.2232055664062	-1377.48486328125	1065.49365234375	675.3262939453125	-1238.91015625	728.6160888671875	619.4034423828125	-1218.097290039062	801.686279296875	642.9291381835938	-1272.951293945312	799.1112670898438	689.9096069335938	-1373.439819335938	1672.484985351562	432.1577453613281	-1164.74267578125	1732.302490234375	366.56787109375	-1178.879272460938	1731.479125976562	464.7440490722656	-1311.060546875	1683.57666015625	307.3965148925781	-1306.655029296875	991.9298706054688	212.5324249267578	-1355.462158203125	1010.586791992188	575.914306640625	-1254.096069335938	1052.968627929688	551.2202758789062	-1211.344116210938	1033.516723632812	272.1861572265625	-1299.683715820312	507.6969909667969	263.9334106445312	-1290.60205078125	651.0187377929688	230.8829956054688	-1394.831787109375	40.53343963623047	275.333251953125	-1356.218505859375	286.96533203125	257.9299621582031	-1182.58251953125	47.42199325561523	340.3896789550781	-1252.772338867188	39.02519226074219	381.5359497070312	-1264.995361328125	42.23755264282227	265.6365661621094	-1459.530639648438	43.35896301269531	325.7029418945312	-1341.619384765625	518.0164184570312	543.0430908203125	-1305.4453125	784.6287231445312	590.4849243164062	-1423.56396484375	40.38214874267578	513.29296875	-1341.076171875	402.4025573730469	528.4407958984375	-1209.678466796875	46.87951278686523	499.0882873535156	-1318.628784179688	41.02736663818359	553.9995727539062	-1478.789428710938	36.95915222167969	448.4420166015625	nan	nan	nan	nan	nan	nan	
3	0.02	-1438.227416992188	1053.058349609375	458.6025390625	-1421.785766601562	1057.791381835938	340.0996704101562	-1437.43359375	1127.643920898438	379.6796875	-1201.886840820312	1322.388671875	406.5090942382812	-1445.296997070312	1253.994262695312	383.05810546875	-1397.819091796875	1517.331665039062	382.8976745605469	-1231.353759765625	1438.350219726562	404.3111877441406	-1476.253784179688	1374.681030273438	444.8672485351562	-1406.577026367188	1478.983520507812	273.0215148925781	-1312.821655273438	1482.524780273438	226.0058746337891	-1333.83154296875	1363.390747070312	146.8602447509766	-1316.175659179688	1152.768432617188	124.1908340454102	-1390.366455078125	1136.2568359375	166.6829376220703	-1227.180297851562	919.4718627929688	190.4227752685547	-1246.961547851562	902.5369262695312	109.7988739013672	-1291.915649414062	1045.7919921875	113.0932846069336	-1216.394897460938	726.8701782226562	184.10302734375	-1227.787475585938	814.446533203125	116.3971099853516	-1188.643798828125	821.1117553710938	171.4099273681641	-1361.975708007812	1479.794677734375	556.9117431640625	-1388.278564453125	1415.181030273438	621.1039428710938	-1404.731079101562	1133.680297851562	661.2865600585938	-1427.65966796875	1128.348999023438	569.05908203125	-1316.083374023438	905.1494140625	687.1905517578125	-1377.439697265625	1065.486572265625	675.3635864257812	-1238.952392578125	728.5579223632812	619.4151611328125	-1218.046997070312	801.7056884765625	642.9186401367188	-1272.936767578125	799.0819702148438	689.95458984375	-1373.400024414062	1672.462768554688	432.2022094726562	-1164.726928710938	1732.310668945312	366.5882263183594	-1178.868896484375	1731.495239257812	464.7670288085938	-1311.040649414062	1683.571899414062	307.4362487792969	-1306.614624023438	991.94091796875	212.5680084228516	-1355.451293945312	1010.585571289062	575.9463500976562	-1254.08642578125	1052.964721679688	551.2368774414062	-1211.3359375	1033.483032226562	272.2093505859375	-1299.653076171875	507.6981506347656	263.9481811523438	-1290.584838867188	651.0175170898438	230.8997039794922	-1394.833129882812	40.52985000610352	275.33935546875	-1356.198608398438	286.9757385253906	257.93994140625	-1182.566772460938	47.36251831054688	340.4340515136719	-1252.7685546875	39.01767730712891	381.5333862304688	-1264.992797851562	42.23322296142578	265.6373901367188	-1459.535766601562	43.36267471313477	325.7032165527344	-1341.59326171875	518.0121459960938	543.0436401367188	-1305.403686523438	784.6270141601562	590.5205078125	-1423.551513671875	40.36527633666992	513.2866821289062	-1341.060791015625	402.3893737792969	528.443359375	-1209.673095703125	46.88680648803711	499.0746459960938	-1318.627075195312	41.01812362670898	553.9977416992188	-1478.78369140625	36.95611572265625	448.4389953613281	-1260.542724609375	921.3048095703125	625.99658203125	-1258.622436523438	42.3325309753418	448.9213562011719	
4	0.03	-1438.19921875	1053.048950195312	458.6294250488281	-1421.763916015625	1057.76708984375	340.1375732421875	-1437.427124023438	1127.647583007812	379.7048950195312	-1201.854736328125	1322.363403320312	406.5237731933594	-1445.2890625	1254.008422851562	383.1004943847656	-1397.80224609375	1517.34228515625	382.9479370117188	-1231.315307617188	1438.352172851562	404.345458984375	-1476.201171875	1374.66845703125	444.9577331542969	-1406.524658203125	1479.000366210938	273.076416015625	-1312.78564453125	1482.529418945312	226.050048828125	-1333.832641601562	1363.43359375	146.8880310058594	-1316.26318359375	1152.847290039062	124.0582046508789	-1390.413208007812	1136.311645507812	166.6342010498047	-1227.4404296875	919.3832397460938	189.9880981445312	-1247.344970703125	902.5819702148438	109.3121337890625	-1292.050415039062	1045.82666015625	112.9568405151367	-1217.012451171875	726.7492065429688	183.3759765625	-1228.270874023438	814.459228515625	115.796142578125	-1188.970825195312	820.8822631835938	170.7682495117188	-1361.888671875	1479.78515625	556.9764404296875	-1388.208862304688	1415.178588867188	621.1776733398438	-1404.698364257812	1133.66748046875	661.3206787109375	-1427.622192382812	1128.354736328125	569.065673828125	-1316.058837890625	905.0802612304688	687.1559448242188	-1377.369506835938	1065.476684570312	675.4058837890625	-1238.985717773438	728.5106201171875	619.4219360351562	-1217.985595703125	801.7109985351562	642.91845703125	-1272.902465820312	799.0518188476562	689.9918212890625	-1373.3525390625	1672.437744140625	432.2568969726562	-1164.705688476562	1732.317016601562	366.6127624511719	-1178.84619140625	1731.508911132812	464.7914428710938	-1311.013671875	1683.56689453125	307.483642578125	-1306.56787109375	991.9542236328125	212.6052856445312	-1355.437377929688	1010.581726074219	575.9842529296875	-1254.073486328125	1052.96044921875	551.2569580078125	-1211.321166992188	1033.458618164062	272.2342224121094	-1299.619506835938	507.6991577148438	263.9636535644531	-1290.562133789062	651.0172729492188	230.9185333251953	-1394.833740234375	40.52910614013672	275.3441162109375	-1356.174072265625	286.9880981445312	257.9517822265625	-1182.553344726562	47.31634902954102	340.4684448242188	-1252.76513671875	39.01206588745117	381.5303344726562	-1264.990844726562	42.23024368286133	265.6378784179688	-1459.539428710938	43.36723327636719	325.7035827636719	-1341.562377929688	518.0099487304688	543.0509643554688	-1305.353759765625	784.6242065429688	590.5591430664062	-1423.538696289062	40.3491325378418	513.282470703125	-1341.041870117188	402.3752746582031	528.4486083984375	-1209.670532226562	46.89231872558594	499.0648498535156	-1318.62353515625	41.01003646850586	553.9942016601562	-1478.7802734375	36.95423126220703	448.437744140625	-1260.468994140625	921.3048706054688	626.0022583007812	-1258.631103515625	42.33168411254883	448.9267883300781	
